<svg width="56" height="62" viewBox="0 0 56 62" fill="none" xmlns="http://www.w3.org/2000/svg">
<path d="M29.6668 26.903L27.9875 27.7443L26.3083 26.903L1.43047 14.4392L26.3083 0.417459C26.781 0.143977 27.3172 0 27.8631 0C28.409 0 28.9452 0.143977 29.418 0.417459L54.2958 14.4392L41.8569 20.6711C41.779 20.5883 41.6833 20.5243 41.577 20.4842L29.1381 14.2523C28.4132 13.9498 27.601 13.9333 26.8645 14.2061C26.128 14.4789 25.5218 15.0207 25.1675 15.7228C24.8132 16.4249 24.7371 17.2353 24.9545 17.9914C25.1718 18.7474 25.6666 19.393 26.3394 19.7987L34.9533 24.1298L29.6668 26.903ZM0 17.2124V45.256C0.000949575 45.8081 0.148299 46.3501 0.426966 46.8264C0.705634 47.3027 1.10561 47.6963 1.58596 47.9668L26.4637 61.9574V30.798L24.9089 30.019L0 17.2124ZM55.975 17.2124L43.5361 23.4443V37.2791C43.5361 38.1055 43.2085 38.8981 42.6253 39.4824C42.0421 40.0668 41.2511 40.3951 40.4264 40.3951C39.6016 40.3951 38.8107 40.0668 38.2275 39.4824C37.6443 38.8981 37.3167 38.1055 37.3167 37.2791V26.5603L29.5424 30.4552V61.6147L54.4201 47.6241C54.8725 47.3632 55.252 46.9923 55.5237 46.5458C55.7955 46.0993 55.9507 45.5914 55.975 45.069V17.0255C55.9914 17.0539 56 17.0861 56 17.1189C56 17.1518 55.9914 17.184 55.975 17.2124Z" fill="#D9D9D9"/>
</svg>
